<?xml version="1.0" encoding="utf-8"?>
<!-- Generator: Adobe Illustrator 24.1.2, SVG Export Plug-In . SVG Version: 6.00 Build 0)  -->
<svg version="1.1" id="Layer_1" xmlns="http://www.w3.org/2000/svg" xmlns:xlink="http://www.w3.org/1999/xlink" x="0px" y="0px"
	 viewBox="0 0 150 28" style="enable-background:new 0 0 150 28;" xml:space="preserve">
<style type="text/css">
	.st0{fill:#FFFFFF;}
	.st1{fill:#FAA61A;}
	.st2{fill-rule:evenodd;clip-rule:evenodd;fill:#FAA61A;}
	.st3{fill-rule:evenodd;clip-rule:evenodd;fill:#FFFFFF;}
</style>
<g id="REMPLANNER_B">
	<g id="PLANNER">
		<path id="P_1_" class="st0" d="M54.9,0c2.4,0,3.5,0.2,4.5,0.9c1.4,0.9,2.1,2.4,2.1,4.3c0,1.4-0.5,2.7-1.4,3.6s-2.2,1.3-4.1,1.3
			h-2.8v4.5h-4.4V0H54.9z M53.2,6.7h2.1c1.2,0,1.8-0.5,1.8-1.5s-0.7-1.6-1.9-1.6h-2.1v3.1H53.2z"/>
		<polygon id="L_1_" class="st0" points="73.9,14.6 63,14.6 63,0 67.4,0 67.4,10.8 73.9,10.8 		"/>
		<path id="A_2_" class="st0" d="M89.9,14.6h-4.5l-0.7-2.1H80l-0.7,2.1h-4.5L80.1,0h4.4L89.9,14.6z M83.2,8
			c-0.6-1.9-0.7-2.3-0.9-3.4c-0.2,0.9-0.3,1.1-0.5,1.7c-0.1,0.2-0.3,0.8-0.5,1.7l-0.4,1.3h2.7L83.2,8z"/>
		<path id="N" class="st0" d="M104.1,14.6h-4.3l-3.6-6.2c-0.5-0.9-0.8-1.6-1.1-2.2c0.1,1,0.1,2.4,0.1,3.3v5.1H91V0h4.4l3.1,5.5
			c0.9,1.7,1.2,2.1,1.4,2.7c0-0.6,0-0.7-0.1-1.2c0-0.5,0-0.8,0-0.9c0-0.6,0-1,0-1.2V0h4.3C104.1,0,104.1,14.6,104.1,14.6z"/>
		<path id="N_4_" class="st0" d="M119.7,14.6h-4.3l-3.6-6.2c-0.5-0.9-0.8-1.6-1.1-2.2c0.1,1,0.1,2.4,0.1,3.3v5.1h-4.3V0h4.4l3.1,5.5
			c0.9,1.7,1.2,2.1,1.4,2.7c0-0.6,0-0.7-0.1-1.2c0-0.5,0-0.8,0-0.9c0-0.6,0-1,0-1.2V0h4.3L119.7,14.6L119.7,14.6z"/>
		<polygon id="E_1_" class="st0" points="134.3,3.5 126.6,3.5 126.6,5.4 133.5,5.4 133.5,8.7 126.6,8.7 126.6,10.9 134.5,10.9 
			134.5,14.6 122.2,14.6 122.2,0 134.3,0 		"/>
		<path id="R" class="st0" d="M143.9,0c1.7,0,2.7,0.2,3.6,0.7c1.3,0.7,2,2,2,3.6s-0.8,2.9-2.1,3.5c1.5,0.6,2,1.7,2.3,5.1
			c0.1,0.8,0.2,1.3,0.3,1.4l0.1,0.1h-4.4c-0.1-0.2-0.1-0.3-0.2-0.6c0-0.1,0-0.2-0.1-0.7l-0.1-0.9c-0.1-1.5-0.3-1.9-0.7-2.4
			c-0.4-0.4-0.9-0.6-1.7-0.6H141v5.1h-4.4V0H143.9z M140.9,6.4h2.4c1.2,0,1.9-0.5,1.9-1.5s-0.7-1.5-2.1-1.5h-2.2L140.9,6.4
			L140.9,6.4z"/>
	</g>
	<g id="REM_B">
		<path class="st1" d="M7.4,0c1.7,0,2.7,0.2,3.6,0.7c1.3,0.7,2,2,2,3.6s-0.8,2.9-2.1,3.5c1.5,0.6,2,1.7,2.3,5.1
			c0.1,0.8,0.2,1.3,0.3,1.4l0.1,0.1H9.1C9,14.4,9,14.3,8.9,14c0-0.1,0-0.2-0.1-0.7l-0.1-0.9C8.6,10.9,8.4,10.5,8,10
			C7.7,9.6,7.1,9.4,6.3,9.4H4.4v5.1H0V0H7.4z M4.4,6.4h2.4c1.2,0,1.9-0.5,1.9-1.5S8,3.4,6.6,3.4H4.4V6.4z"/>
		<polygon class="st1" points="27.5,3.5 19.9,3.5 19.9,5.4 26.8,5.4 26.8,8.7 19.9,8.7 19.9,10.9 27.7,10.9 27.7,14.6 15.5,14.6 
			15.5,0 27.5,0 		"/>
		<path class="st1" d="M46.6,14.6h-4.2v-2.2c0-2,0-4.1,0.2-8.3c-0.6,2.5-0.7,3-1.6,6.5l-1.1,4h-3.3l-1-3.8c-0.9-3.2-1.1-4-1.7-6.7
			c0.2,3.5,0.2,4.6,0.2,7.7v2.8h-4.2V0h6.4l1,3.8c0.5,2.3,0.9,4,1.1,5.5c0.3-1.7,0.5-2.6,1.2-5.6L40.4,0h6.3v14.6H46.6z"/>
	</g>
	<polygon id="Левый_B" class="st2" points="0,20.2 1,20.2 1,22.2 24.1,22.2 24.1,23.2 1,23.2 1,25.2 0,25.2 	"/>
	<polygon id="Правый_черный" class="st3" points="150,25.3 149,25.3 149,23.2 125.2,23.2 125.2,22.2 149,22.2 149,20.1 
		150,20.1 	"/>
</g>
<g id="Подстрочник_RU_B">
	<path class="st0" d="M33,26l0.1,1c-0.6,0.2-1.4,0.3-2.3,0.3c-1.1,0-1.9-0.3-2.4-0.8c-0.5-0.6-0.7-1.5-0.7-2.9s0.2-2.4,0.7-2.9
		c0.5-0.6,1.3-0.8,2.4-0.8c0.9,0,1.6,0.1,2.2,0.2l-0.1,1c-0.6,0-1.3-0.1-2-0.1c-0.6,0-1.1,0.2-1.3,0.6c-0.2,0.4-0.3,1.1-0.3,2.1
		s0.1,1.7,0.3,2.1c0.2,0.4,0.7,0.6,1.3,0.6C31.8,26.1,32.5,26.1,33,26L33,26z"/>
	<polygon class="st0" points="39.8,21 37.5,21 37.5,27.1 36.1,27.1 36.1,21 33.7,21 33.7,19.8 39.8,19.8 	"/>
	<path class="st0" d="M46.4,19.8l-1.9,5.5c-0.2,0.6-0.5,1.1-0.7,1.4c-0.3,0.3-0.6,0.5-1.1,0.5s-1,0-1.6-0.2l0.2-1c0.3,0,0.8,0,1,0
		c0.6,0,0.8-0.7,0.9-0.8l0.1-0.3h-0.4c-0.4,0-0.7-0.2-0.9-0.6l-1.7-4.6h1.4l1.4,4c0,0.1,0.1,0.1,0.2,0.1h0.4l1.4-4.1L46.4,19.8
		L46.4,19.8z"/>
	<path class="st0" d="M53,26.1v-6.3h-2.9c-0.5,0-0.9,0.1-1.2,0.4s-0.5,0.6-0.5,1.1c-0.1,2-0.5,3.6-1,4.8h-0.8V28h1l0.1-0.9h5.2
		L53,28h1v-1.9H53z M51.7,26.1L51.7,26.1h-2.9c0.3-0.6,0.5-1.2,0.7-1.9c0.2-0.7,0.3-1.6,0.4-2.6c0-0.3,0.1-0.4,0.2-0.5
		c0.1-0.1,0.3-0.1,0.5-0.1h1.2v5.1H51.7z"/>
	<polygon class="st0" points="61.2,27.1 59.8,27.1 59.8,21.4 56.6,27.1 55.2,27.1 55.2,19.8 56.5,19.8 56.5,25.5 59.7,19.8 
		61.2,19.8 	"/>
	<path class="st0" d="M65.3,19.7c-0.9,0-1.6,0.2-2,0.5s-0.6,0.9-0.6,1.6c0,0.6,0.1,1,0.3,1.4c0.2,0.3,0.6,0.5,1.1,0.6v0.1
		c-0.6,0.1-1,0.5-1.1,1l-0.6,2.2h1.5l0.6-2.2c0.1-0.4,0.4-0.7,0.9-0.7h1.3v2.9H68v-7.3C67.4,19.8,66.5,19.7,65.3,19.7z M66.6,23.2
		h-1.3c-0.5,0-0.8-0.1-1-0.3C64.1,22.7,64,22.4,64,22s0.1-0.7,0.3-0.9c0.2-0.2,0.5-0.2,1-0.2h1.3C66.6,20.9,66.6,23.2,66.6,23.2z"/>
	<path class="st0" d="M77.9,26.1v-6.3H75c-0.5,0-0.9,0.1-1.2,0.4c-0.3,0.3-0.5,0.6-0.5,1.1c-0.1,2-0.5,3.6-1,4.8h-0.8V28h1l0.1-0.9
		h5.2l0.1,0.9h1v-1.9H77.9z M76.5,26.1L76.5,26.1h-2.9c0.3-0.6,0.5-1.2,0.7-1.9c0.2-0.7,0.3-1.6,0.4-2.6c0-0.3,0.1-0.4,0.2-0.5
		s0.3-0.1,0.5-0.1h1.2L76.5,26.1L76.5,26.1z"/>
	<polygon class="st0" points="86.1,27.1 84.7,27.1 84.7,21.4 81.4,27.1 80,27.1 80,19.8 81.4,19.8 81.4,25.5 84.6,19.8 86.1,19.8 	
		"/>
	<path class="st0" d="M87.6,20.9l-0.1-1c0.7-0.1,1.4-0.2,2.3-0.2c1,0,1.6,0.1,2,0.4s0.6,0.8,0.6,1.5c0,0.5-0.1,0.9-0.3,1.2
		c-0.2,0.3-0.5,0.4-1,0.5l0,0c0.5,0,0.9,0.2,1.2,0.6c0.2,0.3,0.3,0.8,0.3,1.4c0,0.7-0.2,1.2-0.6,1.5s-1,0.4-1.9,0.4
		c-1.1,0-2-0.1-2.8-0.3l0.1-0.9c0.9,0.1,1.7,0.2,2.4,0.2c0.5,0,0.8-0.1,1-0.2s0.3-0.4,0.3-0.9s-0.1-0.8-0.3-1
		c-0.2-0.2-0.5-0.3-1.1-0.3h-1.4v-1h1.4c0.4,0,0.7-0.1,0.9-0.2c0.2-0.1,0.3-0.4,0.3-0.8s-0.1-0.7-0.3-0.8c-0.2-0.1-0.5-0.2-1-0.2
		C89.2,20.8,88.5,20.8,87.6,20.9L87.6,20.9z"/>
	<path class="st0" d="M97.7,20.2c-0.1-0.2-0.2-0.3-0.5-0.3h-1.3c-0.3,0-0.4,0.1-0.5,0.3l-2.3,7h1.4l0.6-2.1H98l0.6,2.1h1.4
		L97.7,20.2z M95.5,24l0.8-2.5l0.2-0.6h0.3c0,0,0.1,0.2,0.2,0.6l0.8,2.5H95.5z"/>
	<path class="st0" d="M105.7,17.2h-0.9c0,0.6-0.2,1.6-0.8,1.6c-0.6,0-0.8-1-0.8-1.6h-0.9c-0.1,0.4,0.1,1.5,0.4,1.8s0.8,0.4,1.3,0.4
		c0.6,0,1-0.1,1.3-0.4C105.6,18.8,105.7,17.7,105.7,17.2z"/>
	<polygon class="st0" points="106.9,27.1 105.6,27.1 105.6,21.4 102.3,27.1 100.9,27.1 100.9,19.8 102.2,19.8 102.2,25.5 
		105.5,19.8 106.9,19.8 	"/>
	<polygon class="st0" points="114.4,19.8 114.4,27.1 113,27.1 113,23.8 110,23.8 110,27.1 108.6,27.1 108.6,19.8 110,19.8 110,22.7 
		113,22.7 113,19.8 	"/>
	<path class="st0" d="M119.9,20.2c-0.1-0.2-0.2-0.3-0.5-0.3h-1.3c-0.3,0-0.4,0.1-0.5,0.3l-2.3,7h1.4l0.6-2.1h2.8l0.6,2.1h1.4
		L119.9,20.2z M117.7,24l0.8-2.5l0.2-0.6h0.3c0,0,0.1,0.2,0.2,0.6L120,24H117.7z"/>
</g>
</svg>
