<?xml version="1.0" encoding="utf-8"?>
<!-- Generator: Adobe Illustrator 16.0.0, SVG Export Plug-In . SVG Version: 6.00 Build 0)  -->
<!DOCTYPE svg PUBLIC "-//W3C//DTD SVG 1.1//EN" "http://www.w3.org/Graphics/SVG/1.1/DTD/svg11.dtd">
<svg version="1.1" id="Layer_1" xmlns="http://www.w3.org/2000/svg" xmlns:xlink="http://www.w3.org/1999/xlink" x="0px" y="0px"
	 width="10px" height="10px" viewBox="0 0 10 10" enable-background="new 0 0 10 10" xml:space="preserve">
<title></title>
<g id="Layer_2">
	<path fill="#CC0000" d="M7.58,9.614H2.428C1.559,9.62,0.755,9.157,0.324,8.402c-0.433-0.737-0.433-1.652,0-2.392l2.587-4.426
		C3.587,0.43,5.07,0.041,6.225,0.715c0.359,0.21,0.66,0.51,0.871,0.87l2.578,4.426l0,0c0.434,0.738,0.434,1.653,0,2.392
		C9.245,9.154,8.443,9.616,7.58,9.614z M5.003,1.155C4.416,1.15,3.871,1.461,3.578,1.971L0.997,6.398
		c-0.294,0.5-0.294,1.119,0,1.619C1.288,8.534,1.836,8.85,2.428,8.846H7.58C8.174,8.854,8.723,8.535,9.016,8.02
		c0.293-0.5,0.293-1.121,0-1.619L6.43,1.971C6.135,1.461,5.592,1.15,5.003,1.155z"/>
	<path fill="#CC0000" d="M5.003,3.462c-0.066-0.001-0.129,0.03-0.169,0.084c-0.043,0.051-0.058,0.12-0.039,0.185l0.208,0.838
		l0.208-0.838C5.23,3.667,5.216,3.598,5.173,3.547C5.133,3.493,5.07,3.461,5.003,3.462z"/>
	<path fill="#CC0000" d="M5.771,3.078C5.433,2.653,4.814,2.584,4.389,2.923C4.332,2.969,4.28,3.021,4.234,3.078
		C4.046,3.315,3.981,3.626,4.058,3.92l0.561,2.326c0.052,0.206,0.261,0.33,0.466,0.279C5.223,6.49,5.33,6.383,5.365,6.246
		l0.58-2.331C6.021,3.625,5.958,3.314,5.771,3.078z M5.211,3.731L5.003,4.569L4.796,3.731C4.777,3.667,4.792,3.598,4.834,3.547
		c0.07-0.094,0.203-0.112,0.296-0.042c0.016,0.012,0.031,0.026,0.042,0.042C5.216,3.598,5.23,3.667,5.211,3.731z"/>
	<circle fill="#CC0000" cx="5.003" cy="7.5" r="0.577"/>
</g>
</svg>
