<?xml version="1.0" encoding="utf-8"?>
<!-- Generator: Adobe Illustrator 24.1.2, SVG Export Plug-In . SVG Version: 6.00 Build 0)  -->
<svg version="1.1" id="Layer_1" xmlns="http://www.w3.org/2000/svg" xmlns:xlink="http://www.w3.org/1999/xlink" x="0px" y="0px"
	 viewBox="0 0 150 28" style="enable-background:new 0 0 150 28;" xml:space="preserve">
<style type="text/css">
	.st0{fill:#FFFFFF;}
	.st1{fill:#FAA61A;}
	.st2{fill-rule:evenodd;clip-rule:evenodd;fill:#FAA61A;}
	.st3{fill-rule:evenodd;clip-rule:evenodd;fill:#FFFFFF;}
	.st4{fill:#1E1E1E;}
</style>
<g id="REMPLANNER_B">
	<g id="PLANNER">
		<path id="P_1_" class="st0" d="M54.9,0c2.4,0,3.5,0.2,4.5,0.9c1.4,0.9,2.1,2.4,2.1,4.3c0,1.4-0.5,2.7-1.4,3.6s-2.2,1.3-4.1,1.3
			h-2.8v4.5h-4.4V0H54.9z M53.2,6.7h2.1c1.2,0,1.8-0.5,1.8-1.5s-0.7-1.6-1.9-1.6h-2.1v3.1H53.2z"/>
		<polygon id="L_1_" class="st0" points="73.9,14.6 63,14.6 63,0 67.4,0 67.4,10.8 73.9,10.8 		"/>
		<path id="A_2_" class="st0" d="M89.9,14.6h-4.5l-0.7-2.1H80l-0.7,2.1h-4.5L80.1,0h4.4L89.9,14.6z M83.2,8
			c-0.6-1.9-0.7-2.3-0.9-3.4c-0.2,0.9-0.3,1.1-0.5,1.7c-0.1,0.2-0.3,0.8-0.5,1.7l-0.4,1.3h2.7L83.2,8z"/>
		<path id="N" class="st0" d="M104.1,14.6h-4.3l-3.6-6.2c-0.5-0.9-0.8-1.6-1.1-2.2c0.1,1,0.1,2.4,0.1,3.3v5.1H91V0h4.4l3.1,5.5
			c0.9,1.7,1.2,2.1,1.4,2.7c0-0.6,0-0.7-0.1-1.2c0-0.5,0-0.8,0-0.9c0-0.6,0-1,0-1.2V0h4.3C104.1,0,104.1,14.6,104.1,14.6z"/>
		<path id="N_4_" class="st0" d="M119.7,14.6h-4.3l-3.6-6.2c-0.5-0.9-0.8-1.6-1.1-2.2c0.1,1,0.1,2.4,0.1,3.3v5.1h-4.3V0h4.4l3.1,5.5
			c0.9,1.7,1.2,2.1,1.4,2.7c0-0.6,0-0.7-0.1-1.2c0-0.5,0-0.8,0-0.9c0-0.6,0-1,0-1.2V0h4.3L119.7,14.6L119.7,14.6z"/>
		<polygon id="E_1_" class="st0" points="134.3,3.5 126.6,3.5 126.6,5.4 133.5,5.4 133.5,8.7 126.6,8.7 126.6,10.9 134.5,10.9 
			134.5,14.6 122.2,14.6 122.2,0 134.3,0 		"/>
		<path id="R" class="st0" d="M143.9,0c1.7,0,2.7,0.2,3.6,0.7c1.3,0.7,2,2,2,3.6s-0.8,2.9-2.1,3.5c1.5,0.6,2,1.7,2.3,5.1
			c0.1,0.8,0.2,1.3,0.3,1.4l0.1,0.1h-4.4c-0.1-0.2-0.1-0.3-0.2-0.6c0-0.1,0-0.2-0.1-0.7l-0.1-0.9c-0.1-1.5-0.3-1.9-0.7-2.4
			c-0.4-0.4-0.9-0.6-1.7-0.6H141v5.1h-4.4V0H143.9z M140.9,6.4h2.4c1.2,0,1.9-0.5,1.9-1.5s-0.7-1.5-2.1-1.5h-2.2L140.9,6.4
			L140.9,6.4z"/>
	</g>
	<g id="REM_B">
		<path class="st1" d="M7.4,0c1.7,0,2.7,0.2,3.6,0.7c1.3,0.7,2,2,2,3.6s-0.8,2.9-2.1,3.5c1.5,0.6,2,1.7,2.3,5.1
			c0.1,0.8,0.2,1.3,0.3,1.4l0.1,0.1H9.1C9,14.4,9,14.3,8.9,14c0-0.1,0-0.2-0.1-0.7l-0.1-0.9C8.6,10.9,8.4,10.5,8,10
			C7.7,9.6,7.1,9.4,6.3,9.4H4.4v5.1H0V0H7.4z M4.4,6.4h2.4c1.2,0,1.9-0.5,1.9-1.5S8,3.4,6.6,3.4H4.4V6.4z"/>
		<polygon class="st1" points="27.5,3.5 19.9,3.5 19.9,5.4 26.8,5.4 26.8,8.7 19.9,8.7 19.9,10.9 27.7,10.9 27.7,14.6 15.5,14.6 
			15.5,0 27.5,0 		"/>
		<path class="st1" d="M46.6,14.6h-4.2v-2.2c0-2,0-4.1,0.2-8.3c-0.6,2.5-0.7,3-1.6,6.5l-1.1,4h-3.3l-1-3.8c-0.9-3.2-1.1-4-1.7-6.7
			c0.2,3.5,0.2,4.6,0.2,7.7v2.8h-4.2V0h6.4l1,3.8c0.5,2.3,0.9,4,1.1,5.5c0.3-1.7,0.5-2.6,1.2-5.6L40.4,0h6.3v14.6H46.6z"/>
	</g>
	<polygon id="Левый_B" class="st2" points="0,20.2 1,20.2 1,22.2 24.1,22.2 24.1,23.2 1,23.2 1,25.2 0,25.2 	"/>
	<polygon id="Правый_черный" class="st3" points="150,25.3 149,25.3 149,23.2 125.2,23.2 125.2,22.2 149,22.2 149,20.1 
		150,20.1 	"/>
</g>
<g id="Подстрочник_EN_B">
	<path id="P_3_" class="st4" d="M35.5,20.7c-0.4-0.3-1-0.5-2-0.5c-1.2,0-2,0-2.7,0.1v6.9h1.3v-2.6c0.5,0.1,1,0.1,1.5,0.1
		c0.9,0,1.5-0.2,1.9-0.5c0.3-0.3,0.5-0.9,0.5-1.7C36.1,21.6,35.9,21,35.5,20.7z M34.4,23.4c-0.2,0.2-0.5,0.2-1,0.3h-1.3v-2.4h1.3
		c0.5,0,0.8,0.1,1,0.2c0.2,0.2,0.3,0.5,0.3,0.9S34.6,23.2,34.4,23.4z"/>
	<path id="L_3_" class="st4" d="M38.2,20.3v5.3c0,0.2,0,0.4,0.1,0.4c0.1,0.1,0.3,0.1,0.5,0.1h2.6l0.1,1c-0.7,0.1-1.7,0.1-2.9,0.1
		c-1.1,0-1.7-0.5-1.7-1.4v-5.5C36.9,20.3,38.2,20.3,38.2,20.3z"/>
	<path id="A_5_" class="st4" d="M46.6,20.6c-0.1-0.2-0.2-0.3-0.5-0.3h-1.3c-0.3,0-0.4,0.1-0.5,0.3l-2.2,6.5h1.4l0.6-1.9h2.8l0.6,1.9
		h1.4L46.6,20.6z M44.4,24.2l0.9-2.9h0.3l0.9,2.9H44.4z"/>
	<path id="A_4_" class="st4" d="M63.5,20.6c-0.1-0.2-0.2-0.3-0.5-0.3h-1.3c-0.3,0-0.4,0.1-0.5,0.3L59,27.2h1.4l0.6-1.9h2.8l0,0
		l0.6,1.9h1.4L63.5,20.6z M61.3,24.2l0.9-2.9h0.3l0.9,2.9H61.3z"/>
	<path id="D_3_" class="st4" d="M89,21c-0.4-0.5-1.2-0.8-2.4-0.8c-0.9,0-1.8,0-2.8,0.1v6.9c1,0.1,1.9,0.1,2.8,0.1
		c1.1,0,1.9-0.3,2.4-0.8c0.4-0.5,0.7-1.4,0.7-2.8C89.7,22.4,89.4,21.5,89,21z M87.9,25.7c-0.2,0.4-0.7,0.5-1.3,0.5
		c-0.4,0-1.4,0-1.4,0v-4.9c0,0,1.2,0,1.4,0c0.6,0,1,0.2,1.3,0.5c0.2,0.4,0.3,1,0.3,2C88.2,24.7,88.1,25.3,87.9,25.7z"/>
	<path id="D_2_" class="st4" d="M79.3,21c-0.4-0.5-1.2-0.8-2.4-0.8c-0.9,0-1.8,0-2.8,0.1v6.9c1,0.1,1.9,0.1,2.8,0.1
		c1.1,0,1.9-0.3,2.4-0.8c0.4-0.5,0.7-1.4,0.7-2.8C80,22.4,79.7,21.5,79.3,21z M78.2,25.7c-0.2,0.4-0.7,0.5-1.3,0.5
		c-0.4,0-1.4,0-1.4,0v-4.9c0,0,1.2,0,1.4,0c0.6,0,1,0.2,1.3,0.5c0.2,0.4,0.3,1,0.3,2C78.5,24.7,78.4,25.3,78.2,25.7z"/>
	<path id="E_3_" class="st4" d="M95.8,26.2l0.1,0.9c-0.7,0.1-1.7,0.1-3.3,0.1c-0.5,0-0.9-0.1-1.2-0.3c-0.3-0.2-0.4-0.5-0.4-1v-4.3
		c0-0.4,0.2-0.7,0.4-1c0.3-0.2,0.7-0.3,1.2-0.3c1.5,0,2.6,0,3.3,0.1l-0.1,1h-2.9c-0.2,0-0.3,0-0.4,0.1s-0.1,0.2-0.1,0.4v1.2h3v1h-3
		v1.5c0,0.2,0,0.4,0.1,0.4c0.1,0.1,0.2,0.1,0.4,0.1L95.8,26.2z"/>
	<path id="S_1_" class="st4" d="M99.8,24.4L98.3,24c-0.5-0.2-0.9-0.4-1.1-0.7C97,23,96.9,22.5,96.9,22c0-0.7,0.2-1.2,0.6-1.5
		c0.4-0.2,1-0.4,2-0.4c0.9,0,1.7,0.1,2.3,0.2l-0.1,0.9c-1.1-0.1-2.6-0.2-3.2,0.1c-0.2,0.1-0.2,0.3-0.2,0.7c0,0.3,0.1,0.5,0.2,0.6
		s0.3,0.2,0.7,0.3l1.4,0.4c0.6,0.2,1,0.4,1.2,0.7c0.2,0.3,0.3,0.7,0.3,1.3c0,0.8-0.2,1.3-0.6,1.5c-0.4,0.3-1.1,0.4-2.1,0.4
		c-0.8,0-1.6-0.1-2.4-0.2l0.1-0.9c1.3,0,2,0,2.4,0c0.5,0,0.8-0.1,1-0.2s0.2-0.3,0.2-0.7c0-0.3-0.1-0.5-0.2-0.6
		C100.3,24.6,100.1,24.5,99.8,24.4z"/>
	<rect id="I_1_" x="103.3" y="20.3" class="st4" width="1.3" height="6.9"/>
	<path id="G_1_" class="st4" d="M111.7,27.2h-1l-0.1-0.7c-0.6,0.5-1.3,0.8-2.2,0.8c-0.8,0-1.4-0.3-1.8-0.9s-0.5-1.5-0.5-2.7
		c0-1.4,0.2-2.3,0.7-2.8s1.3-0.7,2.5-0.7c0.8,0,1.5,0.1,2.1,0.2l-0.1,0.9c-1.3-0.1-2.3-0.1-2.9,0c-0.2,0-0.4,0.2-0.6,0.3
		c-0.2,0.2-0.3,0.4-0.3,0.8c-0.1,0.3-0.1,0.8-0.1,1.3c0,0.9,0.1,1.6,0.3,1.9c0.2,0.4,0.5,0.5,1,0.5s1-0.2,1.6-0.5v-1.7h-1.2V23h2.5
		L111.7,27.2L111.7,27.2z"/>
	<path id="N_9_" class="st4" d="M119.1,20.3v6.4c0,0.3-0.2,0.5-0.5,0.5h-1.1c-0.3,0-0.4-0.1-0.6-0.4l-2.6-5.2v5.6H113v-6.4
		c0-0.3,0.2-0.5,0.5-0.5h1c0.1,0,0.3,0,0.3,0.1c0.1,0.1,0.2,0.2,0.2,0.3l2.6,5.2v-5.5L119.1,20.3L119.1,20.3z"/>
	<path id="N_8_" class="st4" d="M72.8,20.3v6.4c0,0.3-0.2,0.5-0.5,0.5h-1.1c-0.3,0-0.4-0.1-0.6-0.4L68,21.6v5.6h-1.3v-6.4
		c0-0.3,0.2-0.5,0.5-0.5h1c0.1,0,0.3,0,0.3,0.1c0.1,0.1,0.2,0.2,0.2,0.3l2.6,5.2v-5.5L72.8,20.3L72.8,20.3z"/>
	<path id="N_7_" class="st4" d="M55.4,20.3v6.4c0,0.3-0.2,0.5-0.5,0.5h-1.1c-0.3,0-0.4-0.1-0.6-0.4l-2.6-5.2v5.6h-1.3v-6.4
		c0-0.3,0.2-0.5,0.5-0.5h1c0.1,0,0.3,0,0.3,0.1c0.1,0.1,0.2,0.2,0.2,0.3l2.6,5.2v-5.5L55.4,20.3L55.4,20.3z"/>
</g>
<g id="Подстрочник_EN_W">
	<path id="P" class="st0" d="M35.5,20.7c-0.4-0.3-1-0.5-2-0.5c-1.2,0-2,0-2.7,0.1v6.9h1.3v-2.6c0.5,0.1,1,0.1,1.5,0.1
		c0.9,0,1.5-0.2,1.9-0.5c0.3-0.3,0.5-0.9,0.5-1.7C36.1,21.5,35.9,21,35.5,20.7z M34.4,23.3c-0.2,0.2-0.5,0.2-1,0.3h-1.3v-2.4h1.3
		c0.5,0,0.8,0.1,1,0.2c0.2,0.2,0.3,0.5,0.3,0.9S34.6,23.2,34.4,23.3z"/>
	<path id="L" class="st0" d="M38.2,20.3v5.3c0,0.2,0,0.4,0.1,0.4c0.1,0.1,0.3,0.1,0.5,0.1h2.6l0.1,1c-0.7,0.1-1.7,0.1-2.9,0.1
		c-1.1,0-1.7-0.5-1.7-1.4v-5.5C36.9,20.3,38.2,20.3,38.2,20.3z"/>
	<path id="A_1_" class="st0" d="M46.6,20.6c-0.1-0.2-0.2-0.3-0.5-0.3h-1.3c-0.3,0-0.4,0.1-0.5,0.3l-2.2,6.5h1.4l0.6-1.9h2.8l0.6,1.9
		h1.4L46.6,20.6z M44.4,24.2l0.9-2.9h0.3l0.9,2.9H44.4z"/>
	<path id="A" class="st0" d="M63.5,20.6c-0.1-0.2-0.2-0.3-0.5-0.3h-1.3c-0.3,0-0.4,0.1-0.5,0.3L59,27.1h1.4l0.6-1.9h2.8l0,0l0.6,1.9
		h1.4L63.5,20.6z M61.3,24.2l0.9-2.9h0.3l0.9,2.9H61.3z"/>
	<path id="D" class="st0" d="M89,21c-0.4-0.5-1.2-0.8-2.4-0.8c-0.9,0-1.8,0-2.8,0.1v6.9c1,0.1,1.9,0.1,2.8,0.1
		c1.1,0,1.9-0.3,2.4-0.8c0.4-0.5,0.7-1.4,0.7-2.8C89.7,22.4,89.4,21.5,89,21z M87.9,25.7c-0.2,0.4-0.7,0.5-1.3,0.5
		c-0.4,0-1.4,0-1.4,0v-4.9c0,0,1.2,0,1.4,0c0.6,0,1,0.2,1.3,0.5c0.2,0.4,0.3,1,0.3,2C88.2,24.6,88.1,25.3,87.9,25.7z"/>
	<path id="D_1_" class="st0" d="M79.3,21c-0.4-0.5-1.2-0.8-2.4-0.8c-0.9,0-1.8,0-2.8,0.1v6.9c1,0.1,1.9,0.1,2.8,0.1
		c1.1,0,1.9-0.3,2.4-0.8c0.4-0.5,0.7-1.4,0.7-2.8C80,22.4,79.7,21.5,79.3,21z M78.2,25.7c-0.2,0.4-0.7,0.5-1.3,0.5
		c-0.4,0-1.4,0-1.4,0v-4.9c0,0,1.2,0,1.4,0c0.6,0,1,0.2,1.3,0.5c0.2,0.4,0.3,1,0.3,2C78.5,24.6,78.4,25.3,78.2,25.7z"/>
	<path id="E" class="st0" d="M95.8,26.1l0.1,0.9c-0.7,0.1-1.7,0.1-3.3,0.1c-0.5,0-0.9-0.1-1.2-0.3c-0.3-0.2-0.4-0.5-0.4-1v-4.3
		c0-0.4,0.2-0.7,0.4-1c0.3-0.2,0.7-0.3,1.2-0.3c1.5,0,2.6,0,3.3,0.1l-0.1,1h-2.9c-0.2,0-0.3,0-0.4,0.1s-0.1,0.2-0.1,0.4V23h3v1h-3
		v1.5c0,0.2,0,0.4,0.1,0.4c0.1,0.1,0.2,0.1,0.4,0.1L95.8,26.1z"/>
	<path id="S" class="st0" d="M99.8,24.4L98.3,24c-0.5-0.2-0.9-0.4-1.1-0.7C97,23,96.9,22.6,96.9,22c0-0.7,0.2-1.2,0.6-1.5
		c0.4-0.2,1-0.4,2-0.4c0.9,0,1.7,0.1,2.3,0.2l-0.1,0.9c-1.1-0.1-2.6-0.2-3.2,0.1c-0.2,0.1-0.2,0.3-0.2,0.7c0,0.3,0.1,0.5,0.2,0.6
		s0.3,0.2,0.7,0.3l1.4,0.4c0.6,0.2,1,0.4,1.2,0.7c0.2,0.3,0.3,0.7,0.3,1.3c0,0.8-0.2,1.3-0.6,1.5c-0.4,0.3-1.1,0.4-2.1,0.4
		c-0.8,0-1.6-0.1-2.4-0.2l0.1-0.9c1.3,0,2,0,2.4,0c0.5,0,0.8-0.1,1-0.2s0.2-0.3,0.2-0.7c0-0.3-0.1-0.5-0.2-0.6
		C100.3,24.6,100.1,24.5,99.8,24.4z"/>
	<rect id="I" x="103.3" y="20.3" class="st0" width="1.3" height="6.9"/>
	<path id="G" class="st0" d="M111.7,27.1h-1l-0.1-0.7c-0.6,0.5-1.3,0.8-2.2,0.8c-0.8,0-1.4-0.3-1.8-0.9s-0.5-1.5-0.5-2.7
		c0-1.4,0.2-2.3,0.7-2.8s1.3-0.7,2.5-0.7c0.8,0,1.5,0.1,2.1,0.2l-0.1,0.9c-1.3-0.1-2.3-0.1-2.9,0c-0.2,0-0.4,0.2-0.6,0.3
		s-0.3,0.4-0.3,0.8c-0.1,0.3-0.1,0.8-0.1,1.3c0,0.9,0.1,1.6,0.3,1.9c0.2,0.4,0.5,0.5,1,0.5s1-0.2,1.6-0.5V24h-1.2v-0.9h2.5
		L111.7,27.1L111.7,27.1z"/>
	<path id="N_2_" class="st0" d="M119.1,20.3v6.4c0,0.3-0.2,0.5-0.5,0.5h-1.1c-0.3,0-0.4-0.1-0.6-0.4l-2.6-5.2v5.6H113v-6.4
		c0-0.3,0.2-0.5,0.5-0.5h1c0.1,0,0.3,0,0.3,0.1c0.1,0.1,0.2,0.2,0.2,0.3l2.6,5.2v-5.5L119.1,20.3L119.1,20.3z"/>
	<path id="N_1_" class="st0" d="M72.8,20.3v6.4c0,0.3-0.2,0.5-0.5,0.5h-1.1c-0.3,0-0.4-0.1-0.6-0.4L68,21.6v5.6h-1.3v-6.4
		c0-0.3,0.2-0.5,0.5-0.5h1c0.1,0,0.3,0,0.3,0.1c0.1,0.1,0.2,0.2,0.2,0.3l2.6,5.2v-5.5L72.8,20.3L72.8,20.3z"/>
	<path id="N_3_" class="st0" d="M55.4,20.3v6.4c0,0.3-0.2,0.5-0.5,0.5h-1.1c-0.3,0-0.4-0.1-0.6-0.4l-2.6-5.2v5.6h-1.3v-6.4
		c0-0.3,0.2-0.5,0.5-0.5h1c0.1,0,0.3,0,0.3,0.1c0.1,0.1,0.2,0.2,0.2,0.3l2.6,5.2v-5.5L55.4,20.3L55.4,20.3z"/>
</g>
</svg>
