<?xml version="1.0" encoding="utf-8"?>
<!-- Generator: Adobe Illustrator 28.0.0, SVG Export Plug-In . SVG Version: 6.00 Build 0)  -->
<svg version="1.1" id="Слой_1" xmlns="http://www.w3.org/2000/svg" xmlns:xlink="http://www.w3.org/1999/xlink" x="0px" y="0px"
	 viewBox="0 0 32 32" style="enable-background:new 0 0 32 32;" xml:space="preserve">
<style type="text/css">
	.st0{fill:#256786;}
</style>
<g id="Layer_42">
	<path class="st0" d="M2,29c-0.6,0-1-0.4-1-1c0,0,0-0.1,0-0.1l0.8-7c0-0.2,0.1-0.4,0.3-0.6L18.4,3.9c1.2-1.3,3.3-1.3,4.5,0
		c0,0,0,0,0,0l3.1,3.1c1.3,1.2,1.3,3.3,0,4.5c0,0,0,0,0,0L9.7,27.9c-0.2,0.2-0.4,0.3-0.6,0.3l-7,0.8L2,29z M9,27.2L9,27.2z
		 M3.7,21.5l-0.6,5.4l5.4-0.6l16.1-16.1c0.5-0.5,0.5-1.2,0-1.7c0,0,0,0,0,0l-3.1-3.1c-0.5-0.5-1.2-0.5-1.7,0c0,0,0,0,0,0L3.7,21.5z"
		/>
	<path class="st0" d="M23,14.2c-0.3,0-0.5-0.1-0.7-0.3l-6.2-6.2c-0.4-0.4-0.4-1,0-1.4s1-0.4,1.4,0l6.2,6.2c0.4,0.4,0.4,1,0,1.4
		c0,0,0,0,0,0C23.5,14.1,23.3,14.2,23,14.2z"/>
	<rect x="7.4" y="16.1" transform="matrix(0.7071 -0.7071 0.7071 0.7071 -8.3157 14.1309)" class="st0" width="11" height="2"/>
	<path class="st0" d="M30,29H14c-0.6,0-1-0.4-1-1s0.4-1,1-1h16c0.6,0,1,0.4,1,1S30.6,29,30,29z"/>
</g>
</svg>
