<?xml version="1.0" encoding="utf-8"?>
<!-- Generator: Adobe Illustrator 24.1.2, SVG Export Plug-In . SVG Version: 6.00 Build 0)  -->
<svg version="1.1" id="Layer_1" xmlns="http://www.w3.org/2000/svg" xmlns:xlink="http://www.w3.org/1999/xlink" x="0px" y="0px"
	 viewBox="0 0 16 16" style="enable-background:new 0 0 16 16;" xml:space="preserve">
<style type="text/css">
	.st0{fill:#3BAA00;}
</style>
<path class="st0" d="M8,0C3.6,0,0,3.6,0,8s3.6,8,8,8s8-3.6,8-8S12.4,0,8,0z M8.7,13.1c-0.2,0.2-0.5,0.3-0.9,0.3
	c-0.4,0-0.6-0.1-0.9-0.3c-0.2-0.2-0.3-0.5-0.3-0.8c0-0.3,0.1-0.6,0.3-0.8c0.2-0.2,0.5-0.3,0.9-0.3c0.3,0,0.6,0.1,0.8,0.3
	C9,11.7,9.1,12,9.1,12.3C9.1,12.6,9,12.9,8.7,13.1z M11,6.6c-0.2,0.4-0.5,0.8-1,1.2L9.4,8.4C9.1,8.7,8.9,9.1,8.8,9.6
	c0,0.1-0.1,0.2-0.1,0.3c-0.1,0.1-0.2,0.1-0.3,0.1H7.9c-0.5,0-1-0.4-0.9-1c0-0.2,0.1-0.5,0.2-0.7C7.3,8,7.6,7.6,8.1,7.2
	c0.4-0.4,0.7-0.7,0.9-1c0.1-0.2,0.2-0.5,0.2-0.8c0-0.8-0.4-1.2-1.1-1.2c-0.4,0-0.6,0.1-0.9,0.3C6.8,5,6.4,5.5,5.8,5.5h0
	C5.2,5.5,4.7,5,4.9,4.5C5,4,5.3,3.7,5.6,3.4C6.2,2.8,7,2.6,8,2.6c1,0,1.8,0.3,2.4,0.8c0.6,0.5,0.9,1.2,0.9,2.1
	C11.3,5.8,11.2,6.2,11,6.6L11,6.6z"/>
</svg>
