<?xml version="1.0" encoding="utf-8"?>
<!-- Generator: Adobe Illustrator 24.1.2, SVG Export Plug-In . SVG Version: 6.00 Build 0)  -->
<svg version="1.1" id="Layer_1" xmlns="http://www.w3.org/2000/svg" xmlns:xlink="http://www.w3.org/1999/xlink" x="0px" y="0px"
	 viewBox="0 0 32 32" style="enable-background:new 0 0 32 32;" xml:space="preserve">
<style type="text/css">
	.st0{fill:#E02F2F;}
	.st1{fill:#FFFFFF;}
</style>
<g>
	<path class="st0" d="M31.7,9.2c0,0-0.3-2.4-1.3-3.4c-1.2-1.4-2.6-1.4-3.2-1.4C22.7,4,16,4,16,4h0c0,0-6.7,0-11.2,0.3
		c-0.6,0.1-2,0.1-3.2,1.4c-1,1-1.3,3.4-1.3,3.4S0,11.9,0,14.7v2.6c0,2.8,0.3,5.5,0.3,5.5s0.3,2.4,1.3,3.4c1.2,1.4,2.8,1.3,3.5,1.5
		C7.7,27.9,16,28,16,28s6.7,0,11.2-0.4c0.6-0.1,2-0.1,3.2-1.4c1-1,1.3-3.4,1.3-3.4s0.3-2.8,0.3-5.5v-2.6C32,11.9,31.7,9.2,31.7,9.2z
		"/>
	<polygon class="st1" points="12,10 12,22 22,16 	"/>
</g>
</svg>
