<?xml version="1.0" encoding="utf-8"?>
<!-- Generator: Adobe Illustrator 16.0.0, SVG Export Plug-In . SVG Version: 6.00 Build 0)  -->
<!DOCTYPE svg PUBLIC "-//W3C//DTD SVG 1.1//EN" "http://www.w3.org/Graphics/SVG/1.1/DTD/svg11.dtd">
<svg version="1.1" id="Layer_1" xmlns="http://www.w3.org/2000/svg" xmlns:xlink="http://www.w3.org/1999/xlink" x="0px" y="0px"
	 width="16px" height="16px" viewBox="0 0 16 16" enable-background="new 0 0 16 16" xml:space="preserve">
<g>
	<path fill="#5EBEE1" d="M16,12.409C16,14.394,14.391,16,12.409,16H3.591C1.609,16,0,14.391,0,12.409V3.591C0,1.609,1.609,0,3.591,0
		h8.818C14.391,0,16,1.609,16,3.591V12.409z"/>
	<path fill="#FFFFFF" d="M12.652,3.541L2.889,7.343C2.574,7.467,2.593,7.92,2.918,8.016l2.481,0.732l0.925,2.938
		c0.095,0.308,0.487,0.399,0.71,0.169l1.285-1.311l2.518,1.849c0.308,0.227,0.747,0.058,0.823-0.314l1.665-7.971
		C13.41,3.72,13.025,3.394,12.652,3.541L12.652,3.541L12.652,3.541z M11.43,5.308l-4.534,4.01c-0.044,0.04-0.073,0.095-0.081,0.153
		L6.64,11.023c-0.008,0.052-0.077,0.059-0.092,0.008L5.831,8.715c-0.033-0.106,0.011-0.22,0.105-0.278l5.354-3.323
		C11.411,5.044,11.539,5.213,11.43,5.308L11.43,5.308L11.43,5.308z"/>
</g>
</svg>
