<?xml version="1.0" encoding="utf-8"?>
<!-- Generator: Adobe Illustrator 16.0.0, SVG Export Plug-In . SVG Version: 6.00 Build 0)  -->
<!DOCTYPE svg PUBLIC "-//W3C//DTD SVG 1.1//EN" "http://www.w3.org/Graphics/SVG/1.1/DTD/svg11.dtd">
<svg version="1.1" id="Layer_1" xmlns="http://www.w3.org/2000/svg" xmlns:xlink="http://www.w3.org/1999/xlink" x="0px" y="0px"
	 width="16px" height="16px" viewBox="0 0 16 16" enable-background="new 0 0 16 16" xml:space="preserve">
<g>
	<path fill="#3BAA00" d="M16,12.409C16,14.394,14.391,16,12.409,16H3.591C1.609,16,0,14.391,0,12.409V3.591C0,1.609,1.609,0,3.591,0
		h8.818C14.391,0,16,1.609,16,3.591V12.409z"/>
	<g>
		<path fill="#FFFFFF" d="M3.001,12.999c0.057-0.219,0.104-0.404,0.157-0.593c0.166-0.6,0.334-1.198,0.492-1.803
			c0.023-0.087,0.011-0.21-0.03-0.289c-1.536-2.91,0.049-6.426,3.267-7.179c2.921-0.683,5.551,1.279,6.032,3.902
			c0.499,2.737-1.302,5.334-4.031,5.812c-1.087,0.188-2.123,0.026-3.114-0.451c-0.088-0.042-0.211-0.052-0.307-0.03
			C4.145,12.7,3.266,12.945,3.001,12.999z M4.161,11.86c0.495-0.13,0.952-0.245,1.409-0.37c0.126-0.034,0.226-0.016,0.341,0.049
			c0.856,0.493,1.778,0.677,2.761,0.521c2.262-0.359,3.813-2.467,3.468-4.708c-0.361-2.325-2.55-3.883-4.866-3.459
			C4.476,4.403,2.986,7.507,4.379,9.967c0.153,0.271,0.195,0.496,0.092,0.786C4.345,11.101,4.268,11.463,4.161,11.86z"/>
		<path fill="#FFFFFF" d="M9.313,10.336c-0.975-0.033-2.522-0.797-3.586-2.633c-0.376-0.653-0.322-1.394,0.23-1.905
			c0.188-0.172,0.422-0.13,0.641-0.096C6.652,5.709,6.71,5.793,6.736,5.854C6.879,6.175,7.017,6.496,7.14,6.82
			c0.065,0.176-0.053,0.336-0.307,0.623C6.752,7.534,6.736,7.619,6.798,7.725c0.407,0.688,0.979,1.188,1.727,1.478
			c0.111,0.042,0.191,0.016,0.262-0.069c0.399-0.48,0.438-0.621,0.648-0.526c1.006,0.481,1.087,0.5,1.091,0.611
			C10.565,10.069,9.785,10.371,9.313,10.336z"/>
	</g>
</g>
</svg>
