<?xml version="1.0" encoding="UTF-8"?>
<svg id="_Слой_1" data-name="Слой_1" xmlns="http://www.w3.org/2000/svg" version="1.1" viewBox="0 0 24 24">
  <!-- Generator: Adobe Illustrator 29.2.1, SVG Export Plug-In . SVG Version: 2.1.0 Build 116)  -->
  <defs>
    <style>
      .st0 {
        fill: #256786;
      }
    </style>
  </defs>
  <path class="st0" d="M1.3,3h21.3c.7,0,1.3.6,1.3,1.3s-.6,1.3-1.3,1.3H1.3c-.7,0-1.3-.6-1.3-1.3s.6-1.3,1.3-1.3ZM1.3,10.7h21.3c.7,0,1.3.6,1.3,1.3s-.6,1.3-1.3,1.3H1.3c-.7,0-1.3-.6-1.3-1.3s.6-1.3,1.3-1.3ZM1.3,18.4h21.3c.7,0,1.3.6,1.3,1.3s-.6,1.3-1.3,1.3H1.3c-.7,0-1.3-.6-1.3-1.3s.6-1.3,1.3-1.3Z"/>
</svg>