<?xml version="1.0" encoding="utf-8"?>
<!-- Generator: Adobe Illustrator 28.0.0, SVG Export Plug-In . SVG Version: 6.00 Build 0)  -->
<svg version="1.1" id="Слой_1" xmlns="http://www.w3.org/2000/svg" xmlns:xlink="http://www.w3.org/1999/xlink" x="0px" y="0px"
	 viewBox="0 0 64 64" style="enable-background:new 0 0 64 64;" xml:space="preserve">
<g>
	<path d="M0,49.5l0-38.8C-0.1,6.5,3,3,6.8,2.9C8,2.9,9.2,3.4,10,4.5c0.8,1,1.2,2.3,1.2,3.7l0,1.8h41.1l0-1.8c0-1.4,0.5-2.8,1.5-3.8
		c0.9-1,2.2-1.5,3.4-1.5c1.8,0,3.6,0.9,4.8,2.4c1.3,1.5,2,3.4,1.9,5.5v38.8c0,0,0,0,0,0c0,0,0,0,0,0c0,2.1-0.8,4-2.1,5.4
		c-1.3,1.4-3,2.2-4.8,2.2c0,0-0.1,0-0.1,0l-25.1,0L7,57.1c0,0-0.1,0-0.1,0C3.1,57.1,0.1,53.7,0,49.5C0,49.5,0,49.5,0,49.5
		C0,49.5,0,49.5,0,49.5z M8.8,5.9c-0.5-0.7-1.2-1-2-1c0,0,0,0,0,0C5.4,4.9,4,5.6,3.1,6.8c-1,1.2-1.5,2.7-1.5,4.4v34.6
		c0.1-0.1,0.2-0.2,0.2-0.3C3,43.9,4.7,43,6.5,43c1.2,0,2.3,0.5,3.2,1.4l-0.1-33c0,0,0-0.1,0-0.1c0,0,0-0.1,0-0.1l0-2.7
		C9.6,7.5,9.3,6.6,8.8,5.9z M8.8,45.8c-0.3-0.3-0.7-0.6-1.2-0.7l0,1.6c0,0.4-0.3,0.8-0.8,0.8c-0.7,0-1.2,0.6-1.2,1.3
		c0,1,0.8,1.7,1.8,1.7c0,0,0,0,0,0c0.6,0,1.2-0.3,1.7-0.7c0.4-0.5,0.7-1.1,0.7-1.7C9.8,47.2,9.4,46.4,8.8,45.8z M62.4,11.1
		c0-1.6-0.5-3.2-1.5-4.4c-1-1.2-2.3-1.8-3.7-1.9c-0.9,0-1.7,0.4-2.3,1.1c-0.6,0.7-1,1.6-1,2.6L54,44.4c0.8-0.9,2-1.4,3.2-1.4
		c0,0,0,0,0.1,0c1.8,0,3.6,0.9,4.8,2.4c0.1,0.2,0.3,0.3,0.4,0.5L62.4,11.1z M54,48c0,1.3,1,2.4,2.4,2.4c0,0,0,0,0,0
		c1,0,1.7-0.8,1.8-1.7c0-0.7-0.5-1.3-1.2-1.3c-0.4,0-0.8-0.4-0.8-0.8v-1.6C54.9,45.5,54,46.7,54,48z M7,55.5l24.9,0l25.1,0
		c0,0,0.1,0,0.1,0c2.9,0,5.3-2.3,5.3-5.2v0c0-1.4-0.5-2.8-1.5-3.8c-0.9-0.9-2-1.5-3.3-1.6V46c1.2,0.4,2,1.4,2,2.7
		c0,1.8-1.5,3.3-3.3,3.3c0,0,0,0,0,0c-1.1,0-2-0.4-2.8-1.2c-0.7-0.8-1.1-1.7-1.1-2.8c0,0,0,0,0,0l-0.1-36.5H11.2L11.3,48
		c0,0,0,0,0,0c0,0,0,0,0,0v0c0,0,0,0,0,0c0,1.1-0.4,2-1.1,2.8C9.5,51.6,8.5,52,7.4,52c0,0,0,0,0,0c-1.8,0-3.3-1.5-3.3-3.3
		c0-1.3,0.8-2.4,2-2.7l0-1.1c-1.2,0.1-2.3,0.7-3.1,1.6c-0.9,1-1.4,2.4-1.4,3.8v0C1.6,53.2,4.1,55.6,7,55.5z"/>
</g>
<g>
	<path d="M48.9,14.6H20.5c-0.3,0-0.5,0.2-0.5,0.5v28.4c0,0.3,0.2,0.5,0.5,0.5h28.4c0.3,0,0.5-0.2,0.5-0.5V15.1
		C49.4,14.8,49.2,14.6,48.9,14.6z M21,42.9V29.7h4.9c0.3,0,0.5-0.2,0.5-0.5c0-0.3-0.2-0.5-0.5-0.5H21V15.6h9.1v13.6
		c0,0.3,0.2,0.5,0.5,0.5s0.5-0.2,0.5-0.5V15.6h17.3V30H35.7c-0.3,0-0.5,0.2-0.5,0.5c0,0.3,0.2,0.5,0.5,0.5h6.1v5.4
		c0,0.3,0.2,0.5,0.5,0.5c0.3,0,0.5-0.2,0.5-0.5V31h5.6v11.9H21z"/>
	<path d="M17.7,14.6h-3.9c-0.3,0-0.5,0.2-0.5,0.5c0,0.3,0.2,0.5,0.5,0.5h3.9c0.3,0,0.5-0.2,0.5-0.5C18.2,14.8,18,14.6,17.7,14.6z"/>
	<path d="M17.7,42.9h-3.9c-0.3,0-0.5,0.2-0.5,0.5c0,0.3,0.2,0.5,0.5,0.5h3.9c0.3,0,0.5-0.2,0.5-0.5C18.2,43.1,18,42.9,17.7,42.9z"/>
	<path d="M20.5,45.7c-0.3,0-0.5,0.2-0.5,0.5V50c0,0.3,0.2,0.5,0.5,0.5S21,50.3,21,50v-3.9C21,45.9,20.8,45.7,20.5,45.7z"/>
	<path d="M48.9,45.7c-0.3,0-0.5,0.2-0.5,0.5V50c0,0.3,0.2,0.5,0.5,0.5c0.3,0,0.5-0.2,0.5-0.5v-3.9C49.4,45.9,49.2,45.7,48.9,45.7z"
		/>
	<path d="M15,39.3c-0.2-0.2-0.5-0.2-0.7,0c-0.2,0.2-0.2,0.5,0,0.7l1.2,1.2c0.1,0.1,0.2,0.1,0.3,0.1c0.1,0,0.2,0,0.3-0.1l1.2-1.2
		c0.2-0.2,0.2-0.5,0-0.7c-0.2-0.2-0.5-0.2-0.7,0l-0.4,0.3V19.3l0.4,0.3c0.1,0.1,0.2,0.1,0.3,0.1c0.1,0,0.3-0.1,0.4-0.2
		c0.2-0.2,0.2-0.5,0-0.7l-1.2-1.2c0,0,0,0,0,0c0,0,0,0,0,0c0,0,0,0,0,0c0,0,0,0,0,0c0,0,0,0-0.1,0c0,0,0,0,0,0c0,0-0.1,0-0.1,0
		c0,0,0,0,0,0c0,0,0,0,0,0c0,0-0.1,0-0.1,0c0,0,0,0,0,0c0,0,0,0-0.1,0c0,0,0,0,0,0c0,0,0,0,0,0c0,0,0,0,0,0c0,0,0,0,0,0L14.3,19
		c-0.2,0.2-0.2,0.5,0,0.7c0.2,0.2,0.5,0.2,0.7,0l0.4-0.3v20.3L15,39.3z"/>
	<path d="M45,46.6c-0.2-0.2-0.5-0.2-0.7,0c-0.2,0.2-0.2,0.5,0,0.7l0.3,0.4H24.7l0.3-0.4c0.2-0.2,0.2-0.5,0-0.7
		c-0.2-0.2-0.5-0.2-0.7,0l-1.2,1.2c-0.2,0.2-0.2,0.5,0,0.7l1.2,1.2c0.1,0.1,0.2,0.2,0.4,0.2c0.1,0,0.2,0,0.3-0.1
		c0.2-0.2,0.2-0.5,0-0.7l-0.3-0.4h19.9L44.3,49c-0.2,0.2-0.2,0.5,0,0.7c0.1,0.1,0.2,0.1,0.3,0.1c0.1,0,0.3-0.1,0.4-0.2l1.2-1.2
		c0.2-0.2,0.2-0.5,0-0.7L45,46.6z"/>
</g>
</svg>
