<?xml version="1.0" encoding="utf-8"?>
<!-- Generator: Adobe Illustrator 28.0.0, SVG Export Plug-In . SVG Version: 6.00 Build 0)  -->
<svg version="1.1" id="Слой_1" xmlns="http://www.w3.org/2000/svg" xmlns:xlink="http://www.w3.org/1999/xlink" x="0px" y="0px"
	 viewBox="0 0 64 64" style="enable-background:new 0 0 64 64;" xml:space="preserve">
<style type="text/css">
	.st0{fill:none;stroke:#000000;stroke-linecap:round;stroke-linejoin:round;stroke-miterlimit:10;}
</style>
<path d="M52.5,56.1L63.6,45c0.2-0.1,0.4-0.4,0.4-0.7v-36c0-0.4-0.4-0.8-0.8-0.8H0.8C0.4,7.5,0,7.9,0,8.3v47.4c0,0.4,0.4,0.8,0.8,0.8
	h19.7h31.3C52.1,56.5,52.3,56.3,52.5,56.1z M61.3,45.1l-8.7,8.7v-8.7H61.3z M1.6,54.9V9.1h60.9v34.4H51.7c-0.4,0-0.8,0.4-0.8,0.8
	v10.6H20.4H1.6z"/>
<g>
	<rect x="9.8" y="20.9" class="st0" width="22.5" height="2.5"/>
	<polyline class="st0" points="21.1,20.9 21.1,13.6 26.2,13.6 26.2,16.5 	"/>
	<polyline class="st0" points="24.7,20.9 24.7,16.5 29.2,16.5 29.2,20.9 	"/>
	<polygon class="st0" points="12.7,16.5 17.2,16.5 16.3,20.9 13.6,20.9 	"/>
	<polygon class="st0" points="50.7,16.9 43,16.9 41.7,27 52.1,27 	"/>
	<line class="st0" x1="46.9" y1="34.8" x2="46.9" y2="27"/>
	<path class="st0" d="M12.4,47.3V44c0-1.1,0.9-2.1,2.1-2.1h26.6c1.1,0,2.1,0.9,2.1,2.1v2.6"/>
	<path class="st0" d="M11.4,33.4c0-2,1.6-3.7,3.7-3.7h25.5c2,0,3.7,1.6,3.7,3.7"/>
	<line class="st0" x1="43.1" y1="44.6" x2="43.1" y2="46.2"/>
	<path class="st0" d="M13,16.5c0-1.4,0.9-3.5,1.9-3.5c1.1,0,1.9,2.1,1.9,3.5"/>
	<path class="st0" d="M12.4,50V38.5c0-2.1-1.7-3.7-3.7-3.7c-2.1,0-3.7,1.7-3.7,3.7c0,1.8,1.3,3.4,3.1,3.7V50"/>
	<path class="st0" d="M43.1,50V38.5c0-2.1,1.7-3.7,3.7-3.7c2.1,0,3.7,1.7,3.7,3.7c0,1.8-1.3,3.4-3.1,3.7V50"/>
	<line class="st0" x1="48.9" y1="50" x2="5.9" y2="50"/>
	<line class="st0" x1="12.4" y1="46.2" x2="29.4" y2="46.2"/>
	<line class="st0" x1="36.9" y1="46.2" x2="42.7" y2="46.2"/>
	<line class="st0" x1="32.1" y1="46.2" x2="34.7" y2="46.2"/>
	<g>
		<line class="st0" x1="13" y1="23.4" x2="13" y2="25.7"/>
		<line class="st0" x1="28.9" y1="23.4" x2="28.9" y2="25.7"/>
	</g>
	<line class="st0" x1="11.4" y1="33.4" x2="11.4" y2="35.9"/>
	<line class="st0" x1="44.2" y1="33.4" x2="44.2" y2="35.9"/>
</g>
</svg>
