<?xml version="1.0" encoding="utf-8"?>
<!-- Generator: Adobe Illustrator 28.0.0, SVG Export Plug-In . SVG Version: 6.00 Build 0)  -->
<svg version="1.1" id="Слой_1" xmlns="http://www.w3.org/2000/svg" xmlns:xlink="http://www.w3.org/1999/xlink" x="0px" y="0px"
	 viewBox="0 0 64 64" style="enable-background:new 0 0 64 64;" xml:space="preserve">
<style type="text/css">
	.st0{fill:#FFFFFF;}
	.st1{fill:#1D1D1B;}
	.st2{fill:#FFFFFF;stroke:#000000;stroke-width:0.5;stroke-miterlimit:10;}
	.st3{fill:#1D1D1B;stroke:#000000;stroke-width:0.5;stroke-miterlimit:10;}
	.st4{fill:#1D1D1B;stroke:#000000;stroke-width:0.4;stroke-miterlimit:10;}
	.st5{fill:#494E5B;}
	.st6{fill:#FFFFFF;stroke:#000000;stroke-width:0.1;stroke-miterlimit:10;}
	.st7{fill:#1D1D1B;stroke:#000000;stroke-width:0.1;stroke-miterlimit:10;}
</style>
<g>
	<g>
		<g>
			<polygon class="st0" points="32,0.1 2,17.4 2,46.6 32,63.9 62,46.6 62,17.4 			"/>
		</g>
		<g>
			<path class="st1" d="M32,64L32,64L1.9,46.6V17.4l0,0L32,0l0,0l30,17.3v29.3l0,0L32,64z M2.1,46.6L32,63.9l29.9-17.3V17.4L32,0.1
				L2.1,17.4V46.6z"/>
		</g>
	</g>
	<g>
		<g>
			<polygon class="st0" points="32,62.9 2.9,46.1 32,29.3 61.1,46.1 			"/>
		</g>
		<g>
			<path class="st1" d="M32,62.9L32,62.9L2.8,46.1l0.1,0L32,29.2l0,0l29.1,16.8l-0.1,0L32,62.9z M3.1,46.1L32,62.8l28.9-16.7
				L32,29.4L3.1,46.1z"/>
		</g>
	</g>
	<g>
		<g>
			<polygon class="st2" points="32,29.3 32,1.1 2.9,17.9 2.9,46.1 			"/>
		</g>
		<g>
			<path class="st3" d="M2.9,46.2V17.9l0,0L32.1,1v28.3l0,0L2.9,46.2z M3,18v28l28.9-16.7v-28L3,18z"/>
		</g>
	</g>
	<g>
		<g>
			<polygon class="st2" points="32,1.1 61.1,17.9 61.1,46.1 32,29.3 			"/>
		</g>
		<g>
			<path class="st3" d="M61.1,46.2L61.1,46.2L31.9,29.3V1l0.1,0l29.1,16.8V46.2z M32.1,29.3L61,46V18L32.1,1.2V29.3z"/>
		</g>
	</g>
	<g>
		<g>
			<polygon class="st1" points="2.9,17.9 2,17.4 32,0.1 62,17.4 61.1,17.9 32,1.1 			"/>
		</g>
	</g>
	<g>
		<g>
			<polygon class="st4" points="2,17.4 2,46.6 32,63.9 32,62.9 2.9,46.1 2.9,17.9 			"/>
		</g>
	</g>
	<g>
		<g>
			<polygon class="st4" points="62,17.4 62,46.6 32,63.9 32,62.9 61.1,46.1 61.1,17.9 			"/>
		</g>
	</g>
</g>
<g id="_x39_">
	<g>
		<g>
			<g>
				<polygon class="st0" points="54.7,29.5 56.1,28.6 37,17.5 35.6,18.4 54.7,29.5 				"/>
				<path class="st5" d="M54.7,29.8c-0.1,0-0.1,0-0.2-0.1L35.5,18.7c-0.1-0.1-0.2-0.2-0.2-0.3c0-0.1,0.1-0.3,0.2-0.3l1.4-0.9
					c0.1-0.1,0.3-0.1,0.4,0l19.1,11.1c0.1,0.1,0.2,0.2,0.2,0.3c0,0.1-0.1,0.3-0.2,0.3l-1.4,0.9C54.9,29.8,54.8,29.8,54.7,29.8z
					 M36.4,18.3L54.7,29l0.6-0.4L37,17.9L36.4,18.3z"/>
			</g>
			<g>
				<polygon class="st0" points="54.7,29.5 35.6,18.4 35.6,18.4 35.6,33 54.7,44.1 54.7,44.1 54.7,29.5 				"/>
				<path class="st5" d="M54.7,44.4c-0.1,0-0.1,0-0.2-0.1L35.5,33.3c-0.1-0.1-0.2-0.2-0.2-0.3V18.4c0-0.1,0.1-0.3,0.2-0.3
					c0.1-0.1,0.3-0.1,0.4,0l19.1,11.1c0.1,0.1,0.2,0.2,0.2,0.3v14.6c0,0.1-0.1,0.3-0.2,0.3C54.9,44.4,54.8,44.4,54.7,44.4z M36,32.7
					l18.3,10.7V29.7L36,19V32.7z"/>
			</g>
		</g>
		<g>
			<g>
				<g>
					<polygon class="st0" points="56.1,28.6 54.7,29.5 54.7,39 32.8,51.7 28.7,53.4 32.8,56.7 54.7,44.1 54.7,44.1 56.1,43.2 					
						"/>
					<path class="st5" d="M32.8,57.1c-0.1,0-0.2,0-0.2-0.1l-4.1-3.3c-0.1-0.1-0.2-0.2-0.1-0.4c0-0.1,0.1-0.2,0.2-0.3l4.1-1.7
						l21.7-12.6v-9.3c0-0.1,0.1-0.3,0.2-0.3l1.4-0.9c0.1-0.1,0.3-0.1,0.4,0c0.1,0.1,0.2,0.2,0.2,0.3v14.6c0,0.1-0.1,0.3-0.2,0.3
						l-1.4,0.9c0,0,0,0,0,0L33,57C32.9,57.1,32.9,57.1,32.8,57.1z M29.4,53.5l3.4,2.8l21.7-12.5l1.2-0.8V29.3l-0.6,0.4V39
						c0,0.1-0.1,0.3-0.2,0.3L33,52c0,0,0,0,0,0L29.4,53.5z"/>
				</g>
				<g>
					<polygon class="st0" points="16.1,42 28.7,54.1 32.8,51.7 53.8,39.5 37,29.8 					"/>
					<path class="st5" d="M28.7,54.5c-0.1,0-0.2,0-0.3-0.1L15.8,42.3c-0.1-0.1-0.1-0.2-0.1-0.3c0-0.1,0.1-0.2,0.2-0.3l21-12.2
						c0.1-0.1,0.3-0.1,0.4,0L54,39.2c0.1,0.1,0.2,0.2,0.2,0.3c0,0.1-0.1,0.3-0.2,0.3L33,52l-4.1,2.4C28.8,54.4,28.7,54.5,28.7,54.5z
						 M16.7,42.1l12,11.5l3.9-2.2L53,39.5l-16-9.3L16.7,42.1z"/>
				</g>
			</g>
			<g>
				<g>
					<polygon class="st0" points="32.8,56.7 16.1,47 16.1,42 32.8,51.7 					"/>
					<path class="st5" d="M32.8,57.1c-0.1,0-0.1,0-0.2-0.1l-16.7-9.7c-0.1-0.1-0.2-0.2-0.2-0.3v-5c0-0.1,0.1-0.3,0.2-0.3
						c0.1-0.1,0.3-0.1,0.4,0L33,51.4c0.1,0.1,0.2,0.2,0.2,0.3v5c0,0.1-0.1,0.3-0.2,0.3C32.9,57.1,32.9,57.1,32.8,57.1z M16.4,46.8
						l16,9.3v-4.1l-16-9.3V46.8z"/>
				</g>
			</g>
		</g>
	</g>
	<g>
		<g>
			<path class="st0" d="M37.6,41l-5.7-3.3c-0.2-0.1-0.5-0.2-0.9-0.3l1.9,15.8c0.6,0,1.2-0.2,1.7-0.5l19.5-10.9
				c0.6-0.3,0.8-0.8,0.8-1.1V37L37.6,41z"/>
			<path class="st5" d="M32.9,53.6c-0.2,0-0.4-0.1-0.4-0.3l-1.9-15.8c0-0.1,0-0.2,0.1-0.3c0.1-0.1,0.2-0.1,0.3-0.1
				c0.4,0.1,0.7,0.2,1,0.3l5.5,3.2l17.2-4c0.1,0,0.2,0,0.3,0.1c0.1,0.1,0.1,0.2,0.1,0.3v3.7c0,0.6-0.3,1.1-1,1.5L34.8,53.1
				C34.3,53.4,33.7,53.6,32.9,53.6C33,53.6,32.9,53.6,32.9,53.6z M31.5,37.9l1.8,14.9c0.4-0.1,0.9-0.2,1.2-0.4l19.5-10.9
				c0.4-0.2,0.6-0.5,0.6-0.8c0,0,0,0,0,0v-3.2l-16.9,3.9c-0.1,0-0.2,0-0.3,0L31.7,38C31.7,38,31.6,38,31.5,37.9z"/>
		</g>
		<g>
			<path class="st0" d="M26.6,36.7l-5.8,3.2l-5.7-0.6v3.7c0,0.3,0.2,0.7,0.6,0.9l15.7,9.1c0.4,0.2,1,0.4,1.6,0.3V38.5
				C32.1,38.4,27.3,36.2,26.6,36.7z"/>
			<path class="st5" d="M32.8,53.6c-0.6,0-1.2-0.1-1.6-0.4l-15.7-9.1c-0.5-0.3-0.8-0.8-0.8-1.2v-3.7c0-0.1,0-0.2,0.1-0.3
				c0.1-0.1,0.2-0.1,0.3-0.1l5.6,0.6l5.7-3.1c0.5-0.3,1.9,0.1,4.8,1.2c0.8,0.3,1.6,0.6,1.8,0.6c0.2,0,0.3,0.2,0.3,0.4v14.7
				c0,0.2-0.2,0.4-0.4,0.4C32.9,53.6,32.8,53.6,32.8,53.6z M15.5,39.6v3.3c0,0,0,0,0,0c0,0.2,0.2,0.4,0.4,0.5l15.7,9.1
				c0.3,0.2,0.6,0.2,1,0.3V38.8c-0.3-0.1-0.9-0.3-1.6-0.6c-0.8-0.3-1.8-0.7-2.6-0.9c-1.2-0.4-1.5-0.3-1.6-0.3L21,40.2
				c-0.1,0-0.1,0.1-0.2,0L15.5,39.6z M26.6,36.7L26.6,36.7L26.6,36.7z"/>
		</g>
	</g>
	<g>
		<g>
			<path class="st0" d="M31.3,49.1L15.6,40c-0.9-0.5-0.7-1.4,0.2-1.9l19.5-10.9c1-0.6,2.5-0.6,3.3-0.1l15.7,9.1
				c0.9,0.5,0.7,1.4-0.2,1.9L34.7,48.9C33.7,49.5,32.2,49.6,31.3,49.1z"/>
			<path class="st5" d="M32.8,49.8c-0.6,0-1.2-0.1-1.6-0.4c0,0,0,0,0,0l-15.7-9.1c-0.5-0.3-0.8-0.7-0.8-1.2c0-0.5,0.4-1,1-1.4
				l19.5-10.9c1.1-0.6,2.7-0.7,3.7-0.1l15.7,9.1c0.5,0.3,0.8,0.7,0.8,1.2c0,0.5-0.4,1-1,1.4L34.8,49.3
				C34.3,49.6,33.5,49.8,32.8,49.8z M31.5,48.7c0.7,0.4,2.1,0.4,2.9-0.1l19.5-10.9c0.4-0.2,0.6-0.5,0.6-0.8c0-0.2-0.2-0.4-0.4-0.5
				l-15.7-9.1c-0.7-0.4-2.1-0.4-2.9,0.1L16.1,38.4c-0.4,0.2-0.6,0.5-0.6,0.8c0,0.2,0.2,0.4,0.4,0.5L31.5,48.7z"/>
		</g>
	</g>
	<g>
		<g>
			<path class="st0" d="M41.5,32.3c-3.2-1.4-4.6-2.2-6.9-3.9c-0.5-0.4-0.6-1.1-0.1-1.6c0.9-0.9,1.8-2,3-2.6c0.3-0.2,0.6-0.2,0.9,0
				c3.2,1.4,4.6,2.2,6.9,3.9c0.5,0.4,0.6,1.1,0.1,1.6c-0.9,0.9-1.8,2-3,2.6C42.1,32.4,41.8,32.4,41.5,32.3z"/>
			<path class="st5" d="M41.9,32.8c-0.2,0-0.4,0-0.6-0.1c-3.3-1.5-4.7-2.2-7-3.9c-0.3-0.2-0.6-0.6-0.6-1.1c0-0.4,0.1-0.8,0.4-1.1
				c0.1-0.1,0.3-0.3,0.4-0.4c0.8-0.8,1.6-1.7,2.7-2.3c0.4-0.2,0.9-0.2,1.3,0c3.3,1.5,4.7,2.2,7,3.9c0.3,0.3,0.6,0.6,0.6,1.1
				c0,0.4-0.1,0.8-0.4,1.1c-0.1,0.1-0.3,0.3-0.4,0.4c-0.8,0.8-1.6,1.7-2.7,2.3C42.4,32.7,42.2,32.8,41.9,32.8z M37.9,24.5
				c-0.1,0-0.2,0-0.3,0.1c-1,0.5-1.8,1.3-2.5,2.1c-0.1,0.1-0.3,0.3-0.4,0.4c-0.1,0.1-0.2,0.3-0.2,0.5c0,0.2,0.1,0.4,0.3,0.5
				c2.2,1.6,3.6,2.4,6.8,3.8h0c0.2,0.1,0.4,0.1,0.6,0c1-0.5,1.8-1.3,2.5-2.1c0.1-0.1,0.3-0.3,0.4-0.4c0.1-0.1,0.2-0.3,0.2-0.5
				c0-0.2-0.1-0.4-0.3-0.5c-2.2-1.6-3.6-2.4-6.8-3.8C38.1,24.5,38,24.5,37.9,24.5z"/>
		</g>
	</g>
	<g>
		<g>
			<path class="st0" d="M50,37.7c-3.2-1.4-4.6-2.2-6.9-3.9c-0.5-0.4-0.6-1.1-0.1-1.6c0.9-0.9,1.8-2,3-2.6c0.3-0.2,0.6-0.2,0.9,0
				c3.2,1.4,4.6,2.2,6.9,3.9c0.5,0.4,0.6,1.1,0.4,1.7c-0.7,1.6-2.2,2.8-3.5,2.8C50.4,38,50.3,37.8,50,37.7z"/>
			<path class="st5" d="M50.7,38.4c-0.3,0-0.5-0.1-0.6-0.2c-0.1,0-0.1-0.1-0.2-0.1c-3.3-1.5-4.7-2.2-7-3.9c-0.3-0.2-0.6-0.6-0.6-1.1
				c0-0.4,0.1-0.8,0.4-1.1c0.1-0.1,0.3-0.3,0.4-0.4c0.8-0.8,1.6-1.7,2.7-2.3c0.4-0.2,0.9-0.2,1.3,0c3.3,1.5,4.7,2.2,7,3.9
				c0.7,0.5,0.9,1.4,0.5,2.2C53.7,37.1,52.1,38.4,50.7,38.4C50.7,38.4,50.7,38.4,50.7,38.4z M46.5,29.9c-0.1,0-0.2,0-0.3,0.1
				c-1,0.5-1.8,1.3-2.5,2.1c-0.1,0.1-0.3,0.3-0.4,0.4c-0.1,0.1-0.2,0.3-0.2,0.5c0,0.2,0.1,0.4,0.3,0.5c2.2,1.6,3.6,2.4,6.8,3.8h0
				c0.1,0.1,0.2,0.1,0.3,0.2c0.1,0.1,0.1,0.1,0.2,0.1c1.1,0,2.5-1.2,3.1-2.6c0.2-0.5,0.1-1-0.3-1.3c-2.2-1.6-3.6-2.4-6.8-3.8
				C46.7,29.9,46.6,29.9,46.5,29.9z"/>
		</g>
	</g>
	<g>
		<path class="st0" d="M34.5,27.7c-0.7-0.4-1.6-0.4-2.3,0L27.9,30c-0.4,0.4-0.3,1.5-0.3,1.5l1.4-0.8l18,10.4l0,0
			c0.3,0.2,0.6,0.6,0.6,1v1.8c0,0.6-0.1,1.2-0.3,1.7l-0.1,0.2c0,0,5.2-2.9,5.2-2.9l0,0c0.4-0.5,0.7-1.1,0.7-1.7v-1.4
			c0-0.8-0.4-1.6-1.1-2L34.5,27.7z"/>
		<path class="st5" d="M47.1,46.2c-0.1,0-0.2,0-0.3-0.1c-0.1-0.1-0.2-0.3-0.1-0.4l0.1-0.2c0.2-0.5,0.3-1,0.3-1.6v-1.8
			c0-0.3-0.1-0.5-0.4-0.6L29,31.1l-1.2,0.7c-0.1,0.1-0.3,0.1-0.4,0c-0.1-0.1-0.2-0.2-0.2-0.3c0-0.2-0.1-1.3,0.4-1.8
			c0,0,0.1,0,0.1-0.1l4.3-2.4c0.8-0.5,1.9-0.5,2.7,0L52,37.4c0.8,0.5,1.3,1.4,1.3,2.3v1.4c0,0.7-0.3,1.4-0.8,2l0,0
			c0,0-0.1,0.1-0.1,0.1l-5.2,2.9C47.2,46.1,47.2,46.2,47.1,46.2z M29,30.3c0.1,0,0.1,0,0.2,0.1l18,10.4c0.5,0.3,0.7,0.8,0.7,1.3v1.8
			c0,0.4,0,0.7-0.1,1.1l4.3-2.4c0.3-0.4,0.5-0.9,0.5-1.4v-1.4c0-0.7-0.4-1.3-1-1.7L34.3,28l0,0c-0.6-0.3-1.3-0.4-1.9,0l-4.2,2.4
			c-0.1,0.1-0.1,0.3-0.1,0.5l0.8-0.5C28.9,30.3,29,30.3,29,30.3z M52.3,42.9L52.3,42.9L52.3,42.9z"/>
	</g>
</g>
<g>
	<g>
		<g>
			<polygon class="st6" points="10.4,37.9 10.4,16.9 25.3,8.2 25.3,29.2 			"/>
		</g>
		<g>
			<path class="st7" d="M10.3,38V16.8L25.4,8v21.3L10.3,38z M10.5,16.9v20.8l14.7-8.5V8.4L10.5,16.9z"/>
		</g>
	</g>
	<g>
		<g>
			<polygon class="st6" points="11.3,36.2 11.3,17.4 24.4,9.9 24.4,28.7 			"/>
		</g>
		<g>
			<path class="st7" d="M11.2,36.4V17.3l13.3-7.7v19.1L11.2,36.4z M11.4,17.5V36l12.8-7.4V10L11.4,17.5z"/>
		</g>
	</g>
	<g>
		<g>
			<polygon class="st6" points="24.4,28.7 22.8,27.8 11.3,34.3 11.3,36.2 			"/>
		</g>
		<g>
			<path class="st7" d="M11.2,36.4v-2.1l11.5-6.7l1.8,1.1L11.2,36.4z M11.4,34.4V36l12.7-7.3l-1.4-0.8L11.4,34.4z"/>
		</g>
	</g>
	<g>
		<g>
			<polygon class="st6" points="22.8,27.8 22.8,10.8 24.4,9.9 24.4,28.7 			"/>
		</g>
		<g>
			<path class="st7" d="M24.5,28.9l-1.8-1.1V10.7l1.8-1.1V28.9z M22.9,27.7l1.4,0.8V10l-1.4,0.8V27.7z"/>
		</g>
	</g>
	<g>
		<g>
			<polygon class="st6" points="17.9,30.6 17.9,13.6 16.6,14.3 16.6,31.3 			"/>
		</g>
		<g>
			<path class="st7" d="M16.5,31.5l0-17.2l1.5-0.8v17.2L16.5,31.5z M16.7,14.4l0,16.7l1-0.6V13.8L16.7,14.4z"/>
		</g>
	</g>
</g>
</svg>
